<svg width="135" height="96" viewBox="0 0 135 96" fill="none" xmlns="http://www.w3.org/2000/svg">
<path d="M2.38477 64.21H11.2363C12.5254 64.21 13.6426 64.3496 14.5879 64.6289C15.5332 64.9082 16.3174 65.3128 16.9404 65.8428C17.5635 66.3656 18.0254 67.0065 18.3262 67.7656C18.6341 68.5247 18.7881 69.3805 18.7881 70.333C18.7881 71.2282 18.6377 72.0553 18.3369 72.8145C18.0361 73.5736 17.5742 74.2324 16.9512 74.791C16.3353 75.3424 15.5547 75.7757 14.6094 76.0908C13.6641 76.3988 12.5469 76.5527 11.2578 76.5527L5.79004 76.542V81H2.38477V64.21ZM11.3223 73.5986C11.9668 73.5986 12.529 73.5234 13.0088 73.373C13.4958 73.2155 13.9004 72.9971 14.2227 72.7178C14.5521 72.4313 14.7956 72.0876 14.9531 71.6865C15.1178 71.2783 15.2002 70.8271 15.2002 70.333C15.2002 69.3376 14.8743 68.5641 14.2227 68.0127C13.5781 67.4541 12.6113 67.1748 11.3223 67.1748H5.79004V73.5986H11.3223ZM22.1182 68.3242H25.2979V70.1504C25.9997 69.6276 26.7409 69.1764 27.5215 68.7969C28.3021 68.4173 29.0791 68.1273 29.8525 67.9268L30.7871 70.8379C29.5625 70.9596 28.4847 71.2354 27.5537 71.665C26.6299 72.0876 25.8779 72.6855 25.2979 73.459V81H22.1182V68.3242ZM32.3984 74.6621C32.3984 73.7526 32.5811 72.9004 32.9463 72.1055C33.3187 71.3105 33.8451 70.6159 34.5254 70.0215C35.2129 69.4271 36.04 68.958 37.0068 68.6143C37.9808 68.2705 39.0729 68.0986 40.2832 68.0986C41.4935 68.0986 42.582 68.2705 43.5488 68.6143C44.5228 68.958 45.3499 69.4271 46.0303 70.0215C46.7178 70.6159 47.2441 71.3105 47.6094 72.1055C47.9818 72.9004 48.168 73.7526 48.168 74.6621C48.168 75.5716 47.9818 76.4238 47.6094 77.2188C47.2441 78.0137 46.7178 78.7083 46.0303 79.3027C45.3499 79.8971 44.5228 80.3662 43.5488 80.71C42.582 81.0537 41.4935 81.2256 40.2832 81.2256C39.0729 81.2256 37.9808 81.0537 37.0068 80.71C36.04 80.3662 35.2129 79.8971 34.5254 79.3027C33.8451 78.7083 33.3187 78.0137 32.9463 77.2188C32.5811 76.4238 32.3984 75.5716 32.3984 74.6621ZM35.7393 74.6621C35.7393 75.1706 35.8395 75.654 36.04 76.1123C36.2477 76.5635 36.5449 76.9645 36.9316 77.3154C37.3255 77.6592 37.8018 77.9349 38.3604 78.1426C38.9261 78.3431 39.5671 78.4434 40.2832 78.4434C40.9993 78.4434 41.6367 78.3431 42.1953 78.1426C42.7611 77.9349 43.2373 77.6592 43.624 77.3154C44.0179 76.9645 44.3151 76.5635 44.5156 76.1123C44.7233 75.654 44.8271 75.1706 44.8271 74.6621C44.8271 74.1536 44.7233 73.6702 44.5156 73.2119C44.3151 72.7536 44.0179 72.3525 43.624 72.0088C43.2373 71.6579 42.7611 71.3822 42.1953 71.1816C41.6367 70.974 40.9993 70.8701 40.2832 70.8701C39.5671 70.8701 38.9261 70.974 38.3604 71.1816C37.8018 71.3822 37.3255 71.6579 36.9316 72.0088C36.5449 72.3525 36.2477 72.7536 36.04 73.2119C35.8395 73.6702 35.7393 74.1536 35.7393 74.6621ZM52.5615 76.0049C53.1702 76.3486 53.7861 76.6602 54.4092 76.9395C55.0394 77.2116 55.6911 77.4443 56.3643 77.6377C57.0374 77.8239 57.7428 77.9671 58.4805 78.0674C59.2253 78.1676 60.0166 78.2178 60.8545 78.2178C61.8643 78.2178 62.7236 78.1533 63.4326 78.0244C64.1416 77.8883 64.7181 77.7057 65.1621 77.4766C65.6133 77.2402 65.9391 76.9609 66.1396 76.6387C66.3473 76.3164 66.4512 75.9655 66.4512 75.5859C66.4512 74.9772 66.1969 74.4974 65.6885 74.1465C65.18 73.7884 64.3958 73.6094 63.3359 73.6094C62.8704 73.6094 62.3799 73.6416 61.8643 73.7061C61.3486 73.7633 60.8258 73.8278 60.2959 73.8994C59.7731 73.971 59.2539 74.0391 58.7383 74.1035C58.2298 74.1608 57.75 74.1895 57.2988 74.1895C56.5469 74.1895 55.8236 74.0928 55.1289 73.8994C54.4414 73.7061 53.8291 73.416 53.292 73.0293C52.762 72.6426 52.3395 72.1592 52.0244 71.5791C51.7093 70.999 51.5518 70.3223 51.5518 69.5488C51.5518 69.0905 51.6126 68.6357 51.7344 68.1846C51.8633 67.7334 52.0638 67.3037 52.3359 66.8955C52.6152 66.4801 52.9733 66.097 53.4102 65.7461C53.847 65.388 54.3734 65.0801 54.9893 64.8223C55.6123 64.5645 56.3285 64.3639 57.1377 64.2207C57.9541 64.0703 58.8815 63.9951 59.9199 63.9951C60.6719 63.9951 61.4274 64.0381 62.1865 64.124C62.9456 64.2028 63.6833 64.3174 64.3994 64.4678C65.1227 64.6182 65.8174 64.8008 66.4834 65.0156C67.1494 65.2233 67.7689 65.4561 68.3418 65.7139L66.8486 68.4639C66.376 68.2562 65.8675 68.0664 65.3232 67.8945C64.779 67.7155 64.2096 67.5615 63.6152 67.4326C63.0208 67.3037 62.4049 67.2035 61.7676 67.1318C61.1374 67.0531 60.4928 67.0137 59.834 67.0137C58.8958 67.0137 58.1224 67.0817 57.5137 67.2178C56.9121 67.3538 56.4323 67.5293 56.0742 67.7441C55.7161 67.9518 55.4655 68.1882 55.3223 68.4531C55.1862 68.7109 55.1182 68.9688 55.1182 69.2266C55.1182 69.7279 55.3438 70.1396 55.7949 70.4619C56.2461 70.777 56.9336 70.9346 57.8574 70.9346C58.2298 70.9346 58.6559 70.9095 59.1357 70.8594C59.6227 70.8021 60.1312 70.7412 60.6611 70.6768C61.1982 70.6123 61.7425 70.555 62.2939 70.5049C62.8525 70.4476 63.3932 70.4189 63.916 70.4189C64.9043 70.4189 65.778 70.5299 66.5371 70.752C67.3034 70.974 67.9443 71.2926 68.46 71.708C68.9756 72.1162 69.3659 72.6139 69.6309 73.2012C69.8958 73.7812 70.0283 74.4329 70.0283 75.1562C70.0283 76.123 69.8027 76.986 69.3516 77.7451C68.9076 78.4971 68.2702 79.1344 67.4395 79.6572C66.6159 80.1729 65.6204 80.5667 64.4531 80.8389C63.2858 81.1038 61.986 81.2363 60.5537 81.2363C59.6084 81.2363 58.6846 81.1755 57.7822 81.0537C56.8799 80.9391 56.0133 80.7744 55.1826 80.5596C54.359 80.3376 53.5713 80.0762 52.8193 79.7754C52.0745 79.4674 51.3835 79.1309 50.7461 78.7656L52.5615 76.0049ZM78.8369 67.1963H72.6387V64.21H88.4404V67.1963H82.2422V81H78.8369V67.1963ZM92.082 64.21H106.38V67.1963H95.4873V70.5479H105.134V73.3516H95.4873V78.0244H106.605V81H92.082V64.21ZM110.397 64.21H113.803L119.904 70.333L126.006 64.21H129.411V81H126.006V68.9258L119.904 74.8018L113.803 68.9258V81H110.397V64.21Z" fill="black"/>
<path d="M67 14C67 11.8783 66.1571 9.84344 64.6569 8.34315C63.1566 6.84285 61.1217 6 59 6H47V36H61C62.5913 36 64.1174 36.6321 65.2426 37.7574C66.3679 38.8826 67 40.4087 67 42M67 14V42M67 14C67 11.8783 67.8429 9.84344 69.3431 8.34315C70.8434 6.84285 72.8783 6 75 6H87V36H73C71.4087 36 69.8826 36.6321 68.7574 37.7574C67.6321 38.8826 67 40.4087 67 42" stroke="#1E1E1E" stroke-width="4" stroke-linecap="round" stroke-linejoin="round"/>
</svg>
